<svg version="1.1" id="Layer_1" xmlns="http://www.w3.org/2000/svg" xmlns:xlink="http://www.w3.org/1999/xlink" x="0px" y="0px"
	 width="100%" viewBox="0 0 768 768" enable-background="new 0 0 768 768" xml:space="preserve">
<path fill="#000000" opacity="1.000000" stroke="none" 
	d="
M439.103027,264.193909 
	C440.242188,263.546631 441.356018,263.658417 441.957794,262.649872 
	C444.558624,258.290863 446.563110,257.833344 450.702362,260.607605 
	C454.007629,262.822906 453.711945,264.307831 450.673401,266.761505 
	C447.335754,269.456696 444.301605,272.640839 441.642426,276.012024 
	C440.439331,277.537231 439.449860,279.189148 437.348602,280.050079 
	C445.490692,301.185364 454.073395,321.671967 461.247467,342.671570 
	C460.839325,343.000366 460.431183,343.329193 460.023071,343.657990 
	C448.828979,334.268005 437.634918,324.878021 425.463562,314.668274 
	C419.022247,346.808502 412.818176,377.764862 406.614136,408.721252 
	C406.036804,408.706207 405.459473,408.691162 404.882141,408.676117 
	C401.290619,377.070435 397.699127,345.464752 393.961670,312.574646 
	C376.808716,323.402527 360.846985,333.478424 344.885254,343.554321 
	C344.419586,343.199646 343.953918,342.844940 343.488251,342.490265 
	C358.806213,314.344727 375.569397,287.012360 391.856415,259.648376 
	C391.520447,257.282135 388.428284,257.648682 388.521301,254.519241 
	C388.836792,252.934189 391.127930,253.533859 392.815826,252.858841 
	C391.487976,251.359406 389.175873,250.925308 388.771820,248.941727 
	C388.816528,246.933151 390.941956,247.454224 391.553101,246.189362 
	C390.438293,244.656281 387.589111,243.293472 390.898834,241.181549 
	C391.378418,240.875504 391.475372,240.436127 390.987061,239.996124 
	C389.772186,238.901428 387.920013,237.780716 389.845123,236.032013 
	C391.370880,234.646011 393.352692,235.507233 395.110687,235.953308 
	C396.913605,236.410812 398.545959,237.179825 399.675995,239.423325 
	C394.773224,240.288208 399.907349,246.371353 394.703979,247.222916 
	C397.505890,249.827087 398.875275,248.262939 400.138672,246.238129 
	C403.402130,241.007874 406.645416,235.764725 409.956512,230.564774 
	C410.919952,229.051758 411.588074,227.247162 413.607727,226.309937 
	C416.205261,227.606094 416.587677,230.425064 417.650787,232.732956 
	C419.322266,236.361603 420.928772,240.025925 422.397339,243.740555 
	C423.718903,247.083359 425.111694,249.613663 429.438995,250.257996 
	C434.453674,251.004639 434.904572,253.329544 432.779755,257.925842 
	C431.125732,261.503662 429.693359,265.391602 433.535492,269.007568 
	C435.444031,268.006409 437.928925,267.203796 439.103027,264.193909 
z"/>
<path fill="#000000" opacity="1.000000" stroke="none" 
	d="
M269.092773,240.146545 
	C268.626648,236.946182 267.149567,235.321625 263.552826,235.088654 
	C260.302124,234.878098 256.921143,233.791168 255.628891,230.023102 
	C254.812210,227.641708 252.525131,228.597626 250.956955,227.924896 
	C247.847427,226.590942 243.653717,226.152664 244.015747,221.445618 
	C244.223129,218.749115 249.216339,217.762817 253.684540,219.437592 
	C255.208908,220.008972 257.528046,220.779083 257.827454,221.900650 
	C259.169281,226.926895 263.327209,226.816666 267.029907,227.633743 
	C268.720856,228.006851 270.526337,228.535828 271.214691,230.073242 
	C273.437103,235.036942 278.004944,234.078537 282.047119,235.177963 
	C281.979645,232.808487 280.372192,233.504883 279.449249,233.160599 
	C278.204742,232.696411 276.445587,232.767410 275.714050,231.915756 
	C272.125946,227.738464 267.873474,224.608673 263.144958,221.782196 
	C260.614899,220.269867 261.579987,217.730957 264.603516,216.690491 
	C269.444824,215.024490 275.074219,217.491089 276.994537,222.486237 
	C277.719330,224.371643 279.060974,224.390945 280.473175,224.671585 
	C284.615967,225.494965 287.658508,227.293243 287.055664,232.322006 
	C290.711731,232.630630 294.218842,232.532730 297.138580,234.868439 
	C298.036530,232.593384 296.720337,232.016266 295.474243,231.568100 
	C292.535004,230.511017 290.073090,229.180634 289.479126,225.627655 
	C289.097900,223.347443 286.667877,223.688873 285.072632,222.977783 
	C282.756744,221.945450 280.001190,220.814896 280.949799,217.685547 
	C281.849304,214.718323 284.692230,214.739838 287.249359,215.322586 
	C290.571228,216.079636 293.798981,217.089645 294.207458,221.307343 
	C294.238251,221.625275 294.353851,222.197662 294.467651,222.207291 
	C300.554474,222.722580 302.327606,229.034409 306.949799,231.451233 
	C308.754425,232.394821 311.113892,233.138962 311.273560,235.211105 
	C311.692322,240.644257 314.135162,239.677872 317.824646,236.684158 
	C327.570679,261.542938 337.102478,285.855316 346.634277,310.167694 
	C346.193909,310.503052 345.753571,310.838379 345.313232,311.173706 
	C338.848389,305.932404 332.383545,300.691101 326.127167,295.618805 
	C322.911285,297.108643 323.204926,299.832214 322.733368,301.931824 
	C319.092102,318.144318 315.665527,334.404846 312.102753,350.635254 
	C311.561768,353.099915 311.365417,355.461487 311.641541,358.015320 
	C312.067139,361.951599 309.739502,364.610840 306.369202,366.284485 
	C302.120972,368.394043 298.189392,367.411560 294.819611,364.399750 
	C292.229736,362.085022 291.396729,359.040894 292.883667,355.766052 
	C294.837891,351.462036 298.412048,349.721924 303.009552,350.109375 
	C304.631622,350.246063 306.220551,350.776337 308.140198,351.195862 
	C308.887024,348.173096 309.772186,344.904755 307.551575,342.762695 
	C305.650238,340.928619 302.184662,341.319183 299.891296,339.423920 
	C296.515900,348.812836 288.873260,352.158203 281.233765,347.812927 
	C275.685699,344.657257 275.343353,338.526581 280.573975,334.827637 
	C286.142212,330.889923 291.594818,332.222168 297.347198,335.716614 
	C298.300018,331.305817 300.546814,328.119659 304.984802,326.954010 
	C306.027222,326.680206 306.673920,325.750366 306.568665,324.657837 
	C305.618469,314.796112 305.389709,304.844299 303.302521,294.144989 
	C292.350586,298.903198 283.570465,306.132538 273.571747,311.039673 
	C273.194702,310.742004 272.817627,310.444366 272.440582,310.146698 
	C284.286407,290.373291 296.132263,270.599854 308.801178,249.452515 
	C302.928864,250.371765 299.356110,247.502502 293.723450,249.782257 
	C288.642639,251.838669 283.491943,255.636368 276.893341,255.623245 
	C276.357269,255.622177 274.429077,260.684204 270.627808,260.509064 
	C269.829956,260.472290 268.591339,260.687103 268.561188,261.558136 
	C268.403107,266.128357 264.711517,266.392944 261.290009,267.414948 
	C262.051239,272.011810 259.122162,273.953644 254.819702,275.341309 
	C258.004669,280.114258 254.986526,282.490570 251.430283,284.550873 
	C255.278427,291.463684 255.278427,291.463684 248.563278,296.529205 
	C256.987335,302.482422 256.931335,304.544067 248.197998,309.917358 
	C250.321640,310.811188 252.577576,311.479034 254.545349,312.636719 
	C258.586121,315.013947 258.612518,319.165985 254.779633,321.900970 
	C250.413330,325.016602 243.027710,325.019135 238.703690,321.906464 
	C235.177795,319.368408 234.930191,316.101440 238.113617,313.140991 
	C239.177383,312.151733 240.403091,311.336639 241.773727,310.271851 
	C238.357407,308.325989 233.489166,308.380310 232.904907,303.672913 
	C232.353333,299.228882 236.986084,298.641357 239.428391,296.410797 
	C230.665924,290.901123 230.555206,288.843903 238.654541,283.872192 
	C234.878998,276.608032 234.878998,276.608032 243.118332,272.342560 
	C240.108780,265.932037 244.902939,264.818176 249.722061,263.676331 
	C248.977325,258.644836 251.840744,257.029785 256.036804,256.723328 
	C256.202942,256.711212 256.454712,256.760529 256.522491,256.671509 
	C260.088989,251.988358 266.283844,251.808746 270.533234,248.504471 
	C272.815552,246.729736 274.892395,246.405579 277.399902,246.619492 
	C279.945129,246.836594 282.168854,246.709427 281.788391,242.768372 
	C277.828796,243.992722 274.253540,242.728592 270.198181,240.958054 
	C269.465546,240.542862 269.273590,240.350235 269.092773,240.146545 
z"/>
<path fill="#000000" opacity="1.000000" stroke="none" 
	d="
M497.282593,365.660889 
	C495.692963,363.950012 494.108063,362.627136 494.236084,360.397156 
	C495.567932,357.704498 498.347992,359.939697 500.550201,358.250702 
	C498.908234,341.263733 497.237244,323.976654 495.446472,305.449860 
	C485.588501,311.271454 476.344269,316.730652 467.100006,322.189819 
	C466.687195,321.788208 466.274384,321.386566 465.861542,320.984955 
	C479.687683,298.306946 493.513794,275.628967 507.331024,252.965530 
	C510.434845,254.101517 510.540070,256.540283 511.289398,258.410583 
	C518.898438,277.401794 526.414429,296.430298 533.976440,315.440399 
	C535.138367,318.361389 536.017639,321.423523 538.425354,323.715607 
	C539.390015,324.633911 540.136108,325.887848 539.105469,327.263519 
	C538.260132,328.391876 537.073914,328.204559 535.921692,327.824463 
	C531.880920,326.491394 528.493835,324.187927 525.604126,321.062164 
	C523.710083,319.013336 525.084229,317.136871 526.100220,315.172180 
	C522.538635,312.773743 518.044739,314.691956 515.595032,311.573242 
	C513.273438,312.492950 513.288818,313.944061 513.550476,315.746246 
	C517.426636,316.938232 521.277161,318.468597 524.320679,321.420502 
	C525.495728,322.560181 526.999695,323.733856 526.472961,325.630127 
	C525.859924,327.837219 523.784424,327.036438 521.944946,327.337067 
	C523.726440,330.197113 527.497437,332.359344 525.783997,336.259613 
	C524.538818,339.093994 521.621338,338.288696 519.061646,337.935059 
	C519.438354,340.615387 522.693787,343.237640 519.699951,345.391388 
	C515.277466,348.572876 511.670074,344.725037 507.486053,342.687469 
	C505.337250,348.509796 504.334900,354.340332 503.454376,360.166199 
	C503.137878,362.260590 505.276703,363.135101 506.674683,364.274139 
	C509.339813,366.445587 512.040283,368.602142 513.120911,373.124695 
	C505.930817,373.763306 501.961884,369.323181 497.282593,365.660889 
z"/>
<path fill="#000000" opacity="1.000000" stroke="none" 
	d="
M117.288498,420.350830 
	C123.353569,424.387604 125.071960,429.809753 123.226105,436.217834 
	C120.245079,446.566803 113.592644,453.640747 103.126480,456.513702 
	C93.142372,459.254272 85.449631,452.362122 86.623672,442.070068 
	C88.445511,426.099274 107.194466,414.750122 117.288498,420.350830 
z"/>
<path fill="#000000" opacity="1.000000" stroke="none" 
	d="
M348.437042,519.848267 
	C353.630646,510.357544 362.845459,509.013367 369.886566,516.622009 
	C376.860077,524.157471 379.525818,533.298218 378.130676,543.372498 
	C376.828003,552.779297 366.813416,556.672791 358.555786,551.297241 
	C349.580902,545.454773 345.168884,532.124939 348.437042,519.848267 
z"/>
<path fill="#000000" opacity="1.000000" stroke="none" 
	d="
M452.794342,572.100464 
	C448.567627,565.202209 445.202179,558.408813 445.612183,550.349915 
	C446.016785,542.397644 451.911926,538.850769 459.109100,542.302551 
	C469.707855,547.385681 480.305939,566.112366 479.325806,578.024902 
	C478.817047,584.208374 474.074677,587.460876 468.072327,585.582397 
	C461.143372,583.413940 456.871582,578.110229 452.794342,572.100464 
z"/>
<path fill="#000000" opacity="1.000000" stroke="none" 
	d="
M422.099915,571.535645 
	C416.989716,573.262695 413.119415,571.035645 409.841949,568.263489 
	C401.590912,561.284912 397.091339,552.208740 396.768921,541.361877 
	C396.632538,536.774048 397.797607,532.301514 402.308228,529.876221 
	C406.958801,527.375671 411.196777,529.360107 414.750702,532.217529 
	C424.440155,540.008118 429.221863,550.197205 428.213013,562.733459 
	C427.910980,566.486633 426.359375,569.812561 422.099915,571.535645 
z"/>
<path fill="#000000" opacity="1.000000" stroke="none" 
	d="
M329.552521,505.801331 
	C330.447388,508.840027 330.252716,511.438660 329.683319,514.103699 
	C327.757996,523.115173 322.135193,529.003174 315.275879,529.024719 
	C308.700073,529.045349 301.982880,522.732727 299.857574,514.694214 
	C298.344513,508.971405 298.833862,503.444427 301.390656,498.171082 
	C306.316437,488.011658 317.921753,486.715393 325.001129,495.494324 
	C327.332886,498.385864 328.965790,501.643951 329.552521,505.801331 
z"/>
<path fill="#000000" opacity="1.000000" stroke="none" 
	d="
M413.486633,211.004440 
	C405.786133,209.362946 400.649841,205.194611 398.891876,197.892090 
	C397.446350,191.887543 399.008026,186.347122 403.663605,181.983673 
	C409.065552,176.920700 417.424896,175.794022 424.020874,179.170212 
	C430.778259,182.629028 434.306671,189.403244 433.252472,196.893890 
	C432.305939,203.619492 426.915680,209.034195 419.312012,210.689743 
	C417.561188,211.070938 415.705109,210.968781 413.486633,211.004440 
z"/>
<path fill="#000000" opacity="1.000000" stroke="none" 
	d="
M491.593079,560.061279 
	C491.269348,558.351318 490.850067,557.053528 490.811401,555.744568 
	C490.586487,548.135681 495.929993,544.727478 502.682159,548.574890 
	C511.663330,553.692383 517.380249,561.904480 521.979736,570.902771 
	C523.715332,574.298340 525.069641,577.911255 525.308777,581.802185 
	C525.509888,585.073914 525.154663,588.155151 522.029480,590.138123 
	C518.911316,592.116699 515.865784,591.273621 513.078064,589.589844 
	C503.247284,583.652222 497.437805,574.438049 492.890045,564.262024 
	C492.351471,563.056885 492.072571,561.735718 491.593079,560.061279 
z"/>
<path fill="#000000" opacity="1.000000" stroke="none" 
	d="
M560.704468,567.414673 
	C563.214783,571.582703 565.366760,575.541565 566.239685,579.992432 
	C566.883972,583.277344 567.348816,586.764587 564.110291,589.116333 
	C560.896912,591.449829 557.661133,590.171387 554.782776,588.391296 
	C544.381897,581.959106 537.623901,572.434326 532.517334,561.575317 
	C531.451538,559.308960 530.729309,556.940002 530.478577,554.424988 
	C529.774292,547.360413 533.750366,544.189514 540.158508,547.077454 
	C547.998840,550.610840 553.155334,557.229614 558.267517,563.806641 
	C559.081177,564.853394 559.759399,566.005432 560.704468,567.414673 
z"/>
<path fill="#000000" opacity="1.000000" stroke="none" 
	d="
M539.346375,386.528168 
	C538.464844,384.931702 537.335754,383.550476 538.845276,382.215179 
	C540.134155,381.075073 541.777649,381.431702 543.057312,382.233673 
	C546.574585,384.438049 550.050476,386.711487 552.748230,389.980133 
	C556.375854,394.375580 556.273682,395.199524 551.358582,397.974365 
	C552.964355,399.878418 554.649963,401.701569 556.122986,403.682678 
	C557.185486,405.111633 558.670166,406.669769 557.838379,408.615723 
	C556.746399,411.170380 554.365356,409.549988 552.255859,409.836853 
	C553.134827,413.054047 556.336243,415.442169 555.828125,418.851532 
	C555.097778,423.751953 551.016785,422.220337 547.587280,422.234985 
	C548.263672,424.039520 548.809998,425.556824 549.399963,427.056976 
	C550.242310,429.199127 550.528015,431.273956 548.617920,433.023804 
	C546.897522,434.599884 544.973755,434.297913 543.022156,433.500427 
	C538.127625,431.500305 533.977173,428.605560 531.329346,423.872925 
	C527.969421,417.867371 529.689209,414.629211 537.100281,413.863281 
	C534.828979,408.687744 534.233887,403.932922 541.147339,402.810455 
	C541.467957,398.990326 536.304626,397.083832 538.932068,393.724152 
	C540.626892,391.556976 543.231140,393.487762 545.979187,394.045135 
	C543.611816,391.382599 541.582642,389.100372 539.346375,386.528168 
z"/>
<path fill="#000000" opacity="1.000000" stroke="none" 
	d="
M572.054932,564.894165 
	C568.049866,559.701904 564.801270,554.505066 563.207336,548.427185 
	C562.503357,545.742676 562.300964,543.038696 564.403076,540.915161 
	C566.605896,538.689880 569.491638,539.125305 571.879883,540.280029 
	C585.497131,546.864075 594.606873,557.467651 598.463257,572.101074 
	C600.055603,578.143372 595.971863,581.394470 590.055542,579.259460 
	C582.605103,576.570801 577.188721,571.155884 572.054932,564.894165 
z"/>
<path fill="#000000" opacity="1.000000" stroke="none" 
	d="
M174.548203,434.832886 
	C172.926376,445.574249 166.580978,452.272522 157.328278,456.025879 
	C148.597946,459.567322 141.554077,453.366425 143.125763,443.982330 
	C144.630814,434.996216 149.646393,428.498779 157.823029,424.577881 
	C167.268356,420.048584 173.848099,423.987671 174.548203,434.832886 
z"/>
<path fill="#000000" opacity="1.000000" stroke="none" 
	d="
M268.720886,239.994766 
	C269.273590,240.350235 269.465546,240.542862 269.825195,240.856934 
	C271.513000,244.333481 270.024567,245.858780 266.805267,246.657135 
	C263.880371,247.382492 261.265991,245.992401 258.077423,245.830048 
	C257.921082,247.684479 259.981079,249.969162 257.633728,251.507599 
	C255.149185,253.135971 252.405121,253.406784 249.338516,252.658691 
	C249.842438,260.788818 243.091461,258.945435 238.764984,260.489868 
	C240.342255,266.588654 238.618469,268.158722 228.776016,269.210968 
	C229.832123,269.966461 230.660431,270.451233 231.361206,271.078461 
	C234.884903,274.232605 234.369781,277.518707 230.014603,279.562225 
	C227.730408,280.634003 225.289337,281.057434 222.373505,280.992920 
	C221.981415,281.001160 222.019180,281.029144 222.019180,281.029144 
	C220.158768,280.323364 218.243530,279.733002 216.452072,278.882050 
	C214.288483,277.854340 212.277054,276.449005 212.458023,273.690765 
	C212.655701,270.678162 215.050888,269.583282 217.503860,268.863342 
	C219.713776,268.214752 221.964233,267.502197 225.350800,268.643402 
	C222.564926,265.597351 219.351852,263.372803 222.792755,260.165985 
	C225.070389,258.043274 228.340698,258.210815 231.217697,257.554626 
	C230.073044,250.594467 230.419205,250.338913 242.161682,249.384415 
	C242.828598,242.932571 244.107040,242.384705 254.888184,244.044724 
	C254.888184,242.576096 254.888184,241.133362 254.942535,239.345245 
	C254.996902,238.999878 254.970291,239.017914 254.970291,239.017914 
	C259.579315,236.869614 263.988739,237.957458 268.720886,239.994766 
z"/>
<path fill="#000000" opacity="1.000000" stroke="none" 
	d="
M147.890198,424.210938 
	C142.341431,426.552338 137.165527,427.447723 132.733337,422.926605 
	C128.871613,418.987457 128.721405,412.943970 132.189453,406.652130 
	C135.348190,400.921509 139.787064,396.614044 146.287430,394.744324 
	C155.735306,392.026855 163.138779,399.020752 160.747818,408.620575 
	C158.999023,415.642059 154.525894,420.619659 147.890198,424.210938 
z"/>
<path fill="#000000" opacity="1.000000" stroke="none" 
	d="
M436.421265,519.418884 
	C433.967194,515.016296 431.686218,510.936646 431.713074,506.056122 
	C431.756592,498.156036 437.904388,493.846588 444.822937,497.426392 
	C455.013580,502.699249 460.721588,511.512848 461.791107,522.854858 
	C462.454498,529.889954 455.812897,534.091736 449.245087,531.379761 
	C443.607086,529.051819 439.729462,524.804504 436.421265,519.418884 
z"/>
<path fill="#000000" opacity="1.000000" stroke="none" 
	d="
M415.178162,494.936035 
	C419.282379,500.545074 421.207336,506.404846 420.316254,513.029663 
	C419.597687,518.371521 415.299622,521.601440 410.076385,520.780334 
	C400.018158,519.199097 389.847717,504.101074 392.124390,494.130554 
	C393.679474,487.320129 398.794861,484.537720 405.273254,487.057251 
	C409.248199,488.603180 412.459625,491.187805 415.178162,494.936035 
z"/>
<path fill="#000000" opacity="1.000000" stroke="none" 
	d="
M355.275818,496.559021 
	C351.991333,491.142059 350.051666,485.802673 351.764740,479.727509 
	C353.563171,473.349792 359.454651,470.234650 365.739441,472.354980 
	C374.985901,475.474487 381.365417,486.908356 379.132538,496.359039 
	C377.583160,502.916595 370.912231,506.335571 364.331329,503.873352 
	C360.649750,502.495941 357.819641,499.977600 355.275818,496.559021 
z"/>
<path fill="#000000" opacity="1.000000" stroke="none" 
	d="
M208.870239,429.466797 
	C216.535904,426.599243 221.113159,427.053436 223.849808,430.751465 
	C227.550064,435.751526 227.018951,441.740601 222.765152,447.758514 
	C219.916992,451.787811 216.464661,454.946259 212.117081,457.229248 
	C207.957672,459.413452 203.658005,460.795746 199.539597,457.643921 
	C195.161880,454.293671 194.848251,449.504059 196.157608,444.548431 
	C197.967072,437.699951 202.737106,433.234283 208.870239,429.466797 
z"/>
<path fill="#000000" opacity="1.000000" stroke="none" 
	d="
M336.440430,482.436646 
	C329.792267,487.014343 323.401642,486.734344 318.185364,481.364471 
	C312.901611,475.925049 310.284088,469.463318 312.955719,461.811157 
	C315.470154,454.609161 323.349854,451.460205 330.041351,455.028137 
	C340.572845,460.643555 343.638062,474.686554 336.440430,482.436646 
z"/>
<path fill="#000000" opacity="1.000000" stroke="none" 
	d="
M509.617188,429.166626 
	C514.807373,432.510315 518.589233,436.606110 520.682312,442.077881 
	C521.537720,444.314087 521.875854,446.674866 520.003662,448.618225 
	C518.113708,450.580078 515.865784,450.226776 513.528015,449.396423 
	C509.531952,447.977112 506.381989,445.234711 502.414185,442.439178 
	C503.285400,445.148010 504.185394,447.280609 504.642914,449.504303 
	C505.662201,454.458282 502.412018,457.518951 497.748444,455.766235 
	C490.584778,453.073914 485.376068,448.126648 482.484222,440.936920 
	C481.329956,438.067139 481.586121,435.341461 483.909698,433.132935 
	C486.452515,430.716064 489.240509,431.680420 491.736511,433.124603 
	C494.134552,434.512085 496.284119,436.329010 499.499725,438.647003 
	C497.801483,434.317200 496.768463,430.701569 500.430695,428.071747 
	C503.582275,425.808563 506.439819,427.646545 509.617188,429.166626 
z"/>
<path fill="#000000" opacity="1.000000" stroke="none" 
	d="
M481.076904,502.678528 
	C490.167267,508.724884 496.319611,516.525635 498.960266,526.852173 
	C499.748932,529.936340 499.303162,532.853516 496.738953,535.068115 
	C494.295105,537.178772 491.312805,537.237427 488.750488,535.882812 
	C478.448212,530.436401 471.716034,521.938354 469.808258,510.427521 
	C468.484528,502.440552 472.797577,499.655762 481.076904,502.678528 
z"/>
<path fill="#000000" opacity="1.000000" stroke="none" 
	d="
M505.107971,501.867004 
	C508.724762,500.019226 511.772186,501.187775 514.409851,502.908020 
	C523.479553,508.823029 529.951843,516.791382 532.794617,527.429993 
	C533.583252,530.381165 533.296509,533.111206 530.806396,535.130615 
	C528.477905,537.018921 525.701172,536.878174 523.272339,535.591125 
	C512.443970,529.853149 505.378479,521.000549 502.218719,509.143585 
	C501.471161,506.338318 502.519470,503.918610 505.107971,501.867004 
z"/>
<path fill="#000000" opacity="1.000000" stroke="none" 
	d="
M613.837769,543.222229 
	C616.828674,547.478943 619.508057,551.512085 620.861816,556.224670 
	C621.462158,558.314453 621.969788,560.618591 620.164673,562.346619 
	C618.209717,564.218018 615.691467,563.908325 613.629211,562.717407 
	C601.267395,555.578674 592.207031,545.448547 586.744385,532.216125 
	C585.805725,529.942383 585.822021,527.566467 587.939148,525.811584 
	C590.034180,524.075073 592.338135,524.583313 594.518677,525.650269 
	C602.537903,529.574280 608.093506,536.242493 613.837769,543.222229 
z"/>
<path fill="#000000" opacity="1.000000" stroke="none" 
	d="
M204.219238,400.589020 
	C207.682281,403.359741 208.630753,406.747681 208.322266,410.611511 
	C207.677658,418.685089 198.050079,428.573059 190.009827,429.434357 
	C184.442688,430.030731 180.234650,426.327606 180.160233,420.766602 
	C180.036697,411.535492 188.316055,401.055969 197.232132,399.235382 
	C199.565384,398.758942 201.871216,398.859375 204.219238,400.589020 
z"/>
<path fill="#000000" opacity="1.000000" stroke="none" 
	d="
M547.033447,527.184814 
	C539.308167,521.978210 533.986328,515.362549 531.296997,506.757263 
	C530.410583,503.920929 530.193481,500.992249 532.592041,498.854675 
	C534.979797,496.726776 538.008606,497.230011 540.622742,498.378174 
	C550.526306,502.728210 556.762878,510.498047 560.005981,520.604065 
	C560.876282,523.315979 561.334961,526.824402 558.446899,528.928711 
	C554.426697,531.858032 550.888306,529.142456 547.033447,527.184814 
z"/>
<path fill="#000000" opacity="1.000000" stroke="none" 
	d="
M192.356598,390.142212 
	C187.998840,395.333557 183.440445,399.582336 176.745575,400.655273 
	C168.813644,401.926514 163.787323,396.173309 166.321564,388.537354 
	C169.121475,380.100922 175.459259,375.749756 183.837158,374.110138 
	C187.522659,373.388824 190.841248,374.574860 193.056580,377.719086 
	C195.932999,381.801636 194.994522,385.883423 192.356598,390.142212 
z"/>
<path fill="#000000" opacity="1.000000" stroke="none" 
	d="
M621.845581,540.200317 
	C615.509827,534.239868 610.003540,528.046143 606.370667,520.460571 
	C605.050598,517.704041 603.108948,514.372437 606.146057,511.769470 
	C609.157898,509.188080 612.574463,510.770233 615.301941,512.750549 
	C624.153198,519.177002 631.420471,527.051270 636.010010,537.103210 
	C637.229858,539.774841 638.706421,543.008179 636.007935,545.418579 
	C633.317627,547.821716 630.332886,546.030090 627.763550,544.490906 
	C625.782410,543.304138 623.993347,541.796875 621.845581,540.200317 
z"/>
<path fill="#000000" opacity="1.000000" stroke="none" 
	d="
M581.035889,515.467529 
	C579.134766,519.321167 576.079041,519.309204 573.206482,518.077759 
	C562.075378,513.305786 555.303711,504.612671 552.346497,493.086914 
	C551.097656,488.219421 554.983215,485.051483 559.742126,486.387787 
	C569.899109,489.239838 581.275757,504.482819 581.035889,515.467529 
z"/>
<path fill="#000000" opacity="1.000000" stroke="none" 
	d="
M436.114471,487.362213 
	C428.152588,483.398529 423.122894,477.449432 421.545013,469.053772 
	C420.105743,461.395569 425.405579,457.017365 432.624115,459.947021 
	C441.324219,463.478027 446.415314,470.262878 447.942810,479.442596 
	C449.042084,486.048920 444.044708,489.406647 436.114471,487.362213 
z"/>
<path fill="#000000" opacity="1.000000" stroke="none" 
	d="
M388.808624,458.427002 
	C391.297638,451.911316 395.052338,450.053833 400.936890,452.038849 
	C408.356415,454.541656 414.545959,463.439636 414.351349,471.323242 
	C414.177094,478.382599 409.202728,481.802612 402.452576,479.503967 
	C394.499023,476.795532 388.720612,468.084595 388.808624,458.427002 
z"/>
<path fill="#000000" opacity="1.000000" stroke="none" 
	d="
M266.730286,462.018799 
	C260.693146,464.954132 255.680969,464.722626 251.894180,460.670441 
	C247.817184,456.307678 246.285370,450.904388 248.513947,445.070129 
	C250.472687,439.942291 254.354324,436.399963 259.787537,435.941132 
	C263.768494,435.604950 267.630951,437.472015 269.915497,441.143250 
	C272.902069,445.942688 274.619415,451.001556 271.425476,456.457886 
	C270.251221,458.463928 268.921112,460.360382 266.730286,462.018799 
z"/>
<path fill="#000000" opacity="1.000000" stroke="none" 
	d="
M359.202820,442.082336 
	C365.371521,438.532135 370.634125,439.302734 375.738129,444.197845 
	C381.167572,449.405151 383.234344,457.050446 380.586578,462.256592 
	C379.035126,465.307129 376.565247,467.144714 373.109772,467.283875 
	C366.359375,467.555695 361.764191,463.934143 358.551453,458.481445 
	C355.407623,453.145752 354.295044,447.621887 359.202820,442.082336 
z"/>
<path fill="#000000" opacity="1.000000" stroke="none" 
	d="
M545.104736,464.987762 
	C548.078247,468.904053 550.108521,472.897980 550.927490,477.385864 
	C551.783325,482.076263 548.772827,484.735016 544.172791,483.546783 
	C535.522522,481.312439 524.006470,468.407928 522.755615,459.547333 
	C521.891968,453.429565 525.302673,450.581146 531.042114,452.823944 
	C537.001221,455.152557 540.930054,459.973083 545.104736,464.987762 
z"/>
<path fill="#000000" opacity="1.000000" stroke="none" 
	d="
M330.543762,424.825745 
	C339.222778,423.116211 346.902740,429.869568 348.817505,437.263428 
	C349.950897,441.640015 349.308685,445.699615 345.895660,448.656830 
	C342.670715,451.451080 338.717438,451.863281 334.683838,450.095276 
	C328.438385,447.357849 324.480164,442.783997 323.695282,435.901428 
	C323.107025,430.742859 324.911438,426.771301 330.543762,424.825745 
z"/>
<path fill="#000000" opacity="1.000000" stroke="none" 
	d="
M230.508575,415.546875 
	C234.877975,408.087402 240.939117,405.824402 247.303131,409.002319 
	C253.279327,411.986542 256.018829,419.009064 253.568253,425.062531 
	C250.861191,431.749542 244.377533,435.363068 238.474731,433.474609 
	C231.849335,431.354889 228.301163,423.672089 230.508575,415.546875 
z"/>
<path fill="#000000" opacity="1.000000" stroke="none" 
	d="
M477.856506,488.500305 
	C476.043610,493.572571 472.473358,494.287628 468.501587,492.598297 
	C460.690796,489.276093 455.144409,483.467346 451.948547,475.608551 
	C450.475403,471.985901 450.812836,468.369080 453.946075,465.585083 
	C457.129944,462.756042 460.534607,463.778839 463.593231,465.723602 
	C471.798889,470.941040 477.445557,477.907227 477.856506,488.500305 
z"/>
<path fill="#000000" opacity="1.000000" stroke="none" 
	d="
M482.402649,479.336792 
	C481.602875,477.644592 480.959015,476.292542 480.403076,474.905273 
	C479.155029,471.790894 479.742767,468.909668 482.087952,466.632416 
	C484.393494,464.393646 487.240326,464.484192 489.987122,465.840698 
	C498.008911,469.802277 503.384460,476.155945 506.120392,484.602997 
	C506.925537,487.088867 507.188354,490.029694 504.858276,492.081421 
	C502.405640,494.241089 499.538910,493.631805 496.875122,492.475006 
	C490.713348,489.799133 486.189087,485.234772 482.402649,479.336792 
z"/>
<path fill="#000000" opacity="1.000000" stroke="none" 
	d="
M447.289001,433.106201 
	C455.264069,436.938538 460.266785,442.908356 462.814026,450.883606 
	C463.802338,453.978027 464.023468,457.206696 461.134979,459.616852 
	C458.326691,461.960052 455.432953,460.723877 452.729919,459.398041 
	C446.197693,456.194031 441.522949,451.093811 438.592621,444.499481 
	C435.408539,437.333984 439.109802,432.313019 447.289001,433.106201 
z"/>
<path fill="#000000" opacity="1.000000" stroke="none" 
	d="
M626.068176,508.942383 
	C621.780701,504.697723 617.925781,500.556519 615.606140,495.263519 
	C614.711060,493.221008 614.097168,491.068359 615.819824,489.170746 
	C617.708496,487.090302 620.055298,487.456238 622.256165,488.537231 
	C632.457275,493.547791 640.139648,501.142456 645.112000,511.372070 
	C645.958130,513.112854 646.760498,515.166626 645.066101,516.988708 
	C643.311707,518.875488 641.076660,518.588074 639.019897,517.858459 
	C634.049255,516.095459 630.154663,512.668579 626.068176,508.942383 
z"/>
<path fill="#000000" opacity="1.000000" stroke="none" 
	d="
M170.594177,364.854797 
	C169.803604,365.243866 169.358444,365.470032 168.897705,365.658020 
	C162.770569,368.157806 157.158646,367.369324 154.810349,363.684326 
	C152.270706,359.699097 154.175934,353.339661 159.245621,349.223816 
	C162.555588,346.536652 166.356216,344.993958 170.662842,344.848267 
	C174.255829,344.726746 177.238449,345.925293 179.017563,349.178497 
	C180.811600,352.458984 180.093506,355.617249 178.034988,358.536011 
	C176.182922,361.162079 173.705627,363.097290 170.594177,364.854797 
z"/>
<path fill="#000000" opacity="1.000000" stroke="none" 
	d="
M408.042297,430.165527 
	C409.342529,432.158875 410.219330,433.908630 410.687653,435.894745 
	C412.254944,442.541870 407.478058,447.515839 400.797394,446.117828 
	C394.441650,444.787811 387.152252,436.998871 386.159790,430.477112 
	C385.348572,425.146301 390.863098,420.588104 396.740234,421.943329 
	C401.464233,423.032684 405.147949,425.796051 408.042297,430.165527 
z"/>
<path fill="#000000" opacity="1.000000" stroke="none" 
	d="
M225.026093,371.126556 
	C223.670563,377.661713 220.550751,380.451019 213.765350,381.609039 
	C208.116776,382.573059 202.036224,380.050629 199.365173,375.763062 
	C196.868042,371.754608 198.186905,368.410370 201.155396,365.478760 
	C208.327789,358.395386 221.311798,361.297058 225.026093,371.126556 
z"/>
<path fill="#000000" opacity="1.000000" stroke="none" 
	d="
M364.055511,432.021973 
	C357.848755,425.097717 357.280426,419.076263 362.174194,414.709320 
	C366.566864,410.789490 374.673096,412.223358 379.497498,417.773499 
	C383.755310,422.671753 384.167542,428.625793 380.530853,432.697540 
	C376.763916,436.915100 370.861053,436.762115 364.055511,432.021973 
z"/>
<path fill="#000000" opacity="1.000000" stroke="none" 
	d="
M520.191406,468.806458 
	C524.122131,472.985535 527.366150,477.174744 528.533875,482.595398 
	C529.620972,487.641724 526.604004,490.658417 521.788330,488.777100 
	C512.223694,485.040466 505.858826,477.958191 502.953918,468.151581 
	C501.567566,463.471375 504.708527,460.709198 509.462250,461.974396 
	C513.589905,463.072998 516.855957,465.702515 520.191406,468.806458 
z"/>
<path fill="#000000" opacity="1.000000" stroke="none" 
	d="
M436.358063,445.663910 
	C436.403625,453.343536 433.053009,455.825928 426.305878,453.175293 
	C419.021088,450.313416 414.266998,444.919708 412.234192,437.373749 
	C410.761169,431.905731 414.526337,427.998474 420.027588,429.357727 
	C428.485870,431.447601 433.779510,437.019440 436.358063,445.663910 
z"/>
<path fill="#000000" opacity="1.000000" stroke="none" 
	d="
M347.976227,401.449585 
	C352.704437,403.423309 355.868713,406.338104 357.370453,410.947113 
	C359.586853,417.749695 354.625885,423.987823 347.542175,423.032257 
	C343.856476,422.535065 340.536804,420.973236 337.832275,418.345276 
	C333.979004,414.601105 332.564789,408.910156 334.494751,405.224152 
	C336.686890,401.037384 340.549530,399.877960 347.976227,401.449585 
z"/>
<path fill="#000000" opacity="1.000000" stroke="none" 
	d="
M469.375244,434.143677 
	C477.590149,437.786835 482.809753,443.675964 485.653259,451.740845 
	C486.591827,454.402863 486.836426,457.037445 484.577057,459.107452 
	C482.298981,461.194580 479.585480,460.625916 477.113586,459.490265 
	C470.560791,456.479767 465.533386,451.668976 462.389496,445.250916 
	C459.124512,438.585693 462.185486,433.713440 469.375244,434.143677 
z"/>
<path fill="#000000" opacity="1.000000" stroke="none" 
	d="
M587.096313,499.970093 
	C581.170898,495.005493 576.265747,489.631683 572.934631,482.998688 
	C571.825256,480.789642 570.657288,478.250671 572.860840,476.077332 
	C575.066345,473.902191 577.605225,474.989044 579.754028,476.278198 
	C588.361572,481.442200 594.934204,488.543732 599.355225,497.577667 
	C600.326965,499.563385 601.069214,501.768738 599.261841,503.606750 
	C597.278015,505.624329 594.874939,504.769440 592.788574,503.723907 
	C590.875366,502.765198 589.170959,501.389771 587.096313,499.970093 
z"/>
<path fill="#000000" opacity="1.000000" stroke="none" 
	d="
M241.649902,379.263092 
	C245.187469,369.811920 254.937698,366.992615 262.326508,372.878143 
	C267.889343,377.309113 267.570984,384.425323 261.633453,388.371338 
	C252.918304,394.163330 242.275864,389.539124 241.649902,379.263092 
z"/>
<path fill="#000000" opacity="1.000000" stroke="none" 
	d="
M228.373459,384.166962 
	C233.245270,385.719391 236.384018,388.341705 236.325256,393.466064 
	C236.273285,397.999115 232.332718,402.870697 227.581726,404.502594 
	C222.511246,406.244232 217.108398,405.080872 214.322800,401.647644 
	C209.401566,395.582245 214.303024,385.647034 223.021393,384.164307 
	C224.629105,383.890900 226.319427,384.103302 228.373459,384.166962 
z"/>
<path fill="#000000" opacity="1.000000" stroke="none" 
	d="
M198.060974,336.643799 
	C198.665482,336.641022 198.832001,336.633423 198.996414,336.648621 
	C206.379074,337.330933 210.981934,340.876465 211.152924,346.010376 
	C211.307602,350.654541 207.254028,354.549286 200.944778,355.818573 
	C194.783600,357.058105 187.656647,353.697021 186.082993,348.628601 
	C184.761871,344.373535 186.564911,341.195770 190.116486,338.910614 
	C192.378845,337.454987 194.883331,336.616516 198.060974,336.643799 
z"/>
<path fill="#000000" opacity="1.000000" stroke="none" 
	d="
M289.612732,418.937622 
	C299.677490,422.584076 302.441071,431.715088 295.795868,438.218811 
	C292.313293,441.627289 288.135468,443.134766 283.659180,440.974823 
	C279.516815,438.976013 276.629974,435.663025 276.639801,430.515869 
	C276.649506,425.443817 279.163239,422.061188 283.487579,419.988556 
	C285.208649,419.163605 287.144531,418.362732 289.612732,418.937622 
z"/>
<path fill="#000000" opacity="1.000000" stroke="none" 
	d="
M519.524292,231.891006 
	C520.783081,238.997696 517.722473,243.920166 511.515869,245.367996 
	C505.612274,246.745148 499.722260,243.572510 498.043427,238.111145 
	C496.424988,232.846283 499.148529,227.224304 504.363159,225.065857 
	C510.527588,222.514267 515.949158,224.840958 519.524292,231.891006 
z"/>
<path fill="#000000" opacity="1.000000" stroke="none" 
	d="
M275.466919,412.915771 
	C271.611542,414.656677 268.017761,415.223511 264.552979,413.299927 
	C260.637817,411.126312 257.353149,408.210358 257.946411,403.176086 
	C258.462585,398.796051 263.725342,394.249512 268.357239,393.685242 
	C273.514801,393.056976 278.715454,396.204926 280.642212,401.121338 
	C282.466522,405.776306 281.103668,409.069916 275.466919,412.915771 
z"/>
<path fill="#000000" opacity="1.000000" stroke="none" 
	d="
M188.553238,332.010803 
	C181.145706,329.626343 177.770264,325.531921 179.073868,320.928040 
	C180.564484,315.663635 187.553802,312.066223 193.647720,313.426819 
	C200.060638,314.858643 203.743637,318.658997 203.409012,323.499115 
	C203.056000,328.605225 198.639893,331.975647 191.943512,332.212067 
	C190.953110,332.247040 189.957581,332.136841 188.553238,332.010803 
z"/>
<path fill="#000000" opacity="1.000000" stroke="none" 
	d="
M147.350861,328.347168 
	C150.825333,319.912598 162.915573,316.153625 170.133881,320.924835 
	C173.782761,323.336670 174.504181,327.267944 171.946640,330.802948 
	C167.933685,336.349640 157.073853,338.620148 151.116302,335.141907 
	C148.664505,333.710510 147.055679,331.749329 147.350861,328.347168 
z"/>
<path fill="#000000" opacity="1.000000" stroke="none" 
	d="
M305.930908,386.742126 
	C306.911346,391.545929 306.245972,395.368103 301.923950,397.820343 
	C297.534454,400.310791 293.126831,400.782196 288.774170,397.903839 
	C284.887177,395.333527 283.143677,390.334564 284.688690,386.741394 
	C286.576202,382.351715 292.926849,378.911285 297.389557,380.005524 
	C301.056580,380.904663 304.237244,382.575409 305.930908,386.742126 
z"/>
<path fill="#000000" opacity="1.000000" stroke="none" 
	d="
M284.660370,361.139557 
	C292.518127,366.396149 290.175446,376.009735 281.747864,378.502930 
	C277.075958,379.885071 271.992889,378.381500 269.272888,374.591370 
	C266.910797,371.300018 266.637207,367.873596 268.965057,364.409576 
	C271.778961,360.222198 276.760620,358.391266 281.589752,359.808838 
	C282.538330,360.087280 283.433685,360.547058 284.660370,361.139557 
z"/>
<path fill="#000000" opacity="1.000000" stroke="none" 
	d="
M533.751404,351.199799 
	C528.885254,350.896545 525.528198,348.748718 523.260071,344.906738 
	C522.353455,343.371063 522.152161,341.707001 523.287170,340.227600 
	C524.430542,338.737396 526.150635,338.393646 527.795593,339.073517 
	C532.672119,341.089142 536.902405,344.755280 542.870911,343.850861 
	C544.460144,343.610077 546.420898,345.440979 548.128357,346.459351 
	C550.155945,347.668610 551.565247,348.881042 554.391968,346.956512 
	C557.431030,344.887421 568.929871,352.305023 569.491150,356.214050 
	C569.938049,359.326721 567.790894,359.404175 565.670044,358.828064 
	C561.910706,357.806946 558.907776,355.367310 555.833984,353.154602 
	C547.506592,358.753479 543.650513,350.724274 537.787415,347.414398 
	C537.062256,348.917694 536.379822,350.908417 533.751404,351.199799 
z"/>
<path fill="#000000" opacity="1.000000" stroke="none" 
	d="
M234.834198,367.671875 
	C228.781982,364.815826 226.356537,361.465424 227.255203,357.613251 
	C228.341949,352.954895 233.675217,349.657440 239.766861,349.877655 
	C245.454010,350.083191 250.222977,353.460632 250.854218,358.070648 
	C251.400146,362.057861 248.988678,364.617737 245.827316,366.460358 
	C242.524643,368.385315 238.909729,368.553925 234.834198,367.671875 
z"/>
<path fill="#000000" opacity="1.000000" stroke="none" 
	d="
M601.681396,469.334412 
	C604.603455,472.778961 607.376465,475.927307 608.921570,479.856140 
	C609.636719,481.674835 610.439392,483.745697 608.539124,485.405670 
	C606.882568,486.852783 605.079712,486.204315 603.405701,485.360565 
	C594.946106,481.096619 588.729431,474.570068 584.412354,466.210876 
	C583.469727,464.385468 583.075073,462.293915 584.811096,460.667999 
	C586.347534,459.229034 588.180969,459.714935 589.967468,460.391052 
	C594.650024,462.163147 597.725403,466.034668 601.681396,469.334412 
z"/>
<path fill="#000000" opacity="1.000000" stroke="none" 
	d="
M231.982849,330.554016 
	C236.215622,332.258942 239.833481,334.298553 239.308701,339.149933 
	C238.792816,343.918671 234.707901,345.230560 230.830048,346.353210 
	C226.422165,347.629364 222.247742,346.811523 218.547272,344.201263 
	C213.772461,340.833130 213.880264,335.606659 218.766754,332.414276 
	C222.699387,329.845062 227.024551,329.182495 231.982849,330.554016 
z"/>
<path fill="#000000" opacity="1.000000" stroke="none" 
	d="
M556.647095,466.371887 
	C552.567871,462.389465 549.172241,458.332550 546.862976,453.465088 
	C545.851929,451.333954 544.760315,449.058899 546.961853,447.095825 
	C548.899414,445.368134 551.072144,446.133575 552.952637,447.347229 
	C560.652527,452.316803 566.710388,458.753235 570.322693,467.291504 
	C571.047852,469.005493 571.691833,470.837341 570.001282,472.346588 
	C568.402893,473.773529 566.615601,473.267212 564.881836,472.482178 
	C561.808777,471.090759 559.273010,468.969757 556.647095,466.371887 
z"/>
<path fill="#000000" opacity="1.000000" stroke="none" 
	d="
M322.578247,226.997955 
	C315.566803,229.418259 309.826569,227.007568 308.034729,221.226013 
	C306.402374,215.959000 309.737000,210.262238 315.263763,208.876251 
	C320.978638,207.443100 326.503265,210.822144 327.728424,216.712631 
	C328.658112,221.182404 326.569580,224.410995 322.578247,226.997955 
z"/>
<path fill="#000000" opacity="1.000000" stroke="none" 
	d="
M553.864319,438.764282 
	C554.233704,434.949982 556.565491,434.120575 559.200684,435.231781 
	C568.075012,438.973999 574.702148,445.311646 579.229553,453.797852 
	C580.020142,455.279724 580.488098,457.034912 578.875916,458.357971 
	C577.092712,459.821320 575.084839,459.437103 573.260620,458.460968 
	C564.880615,453.976959 557.897400,448.061676 553.864319,438.764282 
z"/>
<path fill="#000000" opacity="1.000000" stroke="none" 
	d="
M618.740234,465.647064 
	C620.819763,464.483582 622.604797,464.654205 624.318237,465.477112 
	C632.494507,469.403687 638.699341,475.450256 643.203613,483.270508 
	C644.042419,484.726837 644.721130,486.391968 643.528381,487.940491 
	C642.192871,489.674316 640.208374,489.542114 638.521423,488.767731 
	C629.816650,484.771942 623.153198,478.495483 618.432617,470.178497 
	C617.671631,468.837769 617.530762,467.336395 618.740234,465.647064 
z"/>
<path fill="#000000" opacity="1.000000" stroke="none" 
	d="
M261.609497,357.921021 
	C256.756989,356.352081 253.359818,353.922028 253.751907,348.627777 
	C254.018234,345.031555 258.401886,341.674164 263.220306,341.055481 
	C267.839203,340.462433 273.482117,343.290466 274.887482,347.053131 
	C276.449799,351.236145 274.441223,354.149170 271.114594,356.339050 
	C268.362427,358.150787 265.257599,358.595886 261.609497,357.921021 
z"/>
<path fill="#000000" opacity="1.000000" stroke="none" 
	d="
M593.930786,442.750000 
	C601.612244,446.788025 607.600586,452.132172 611.808350,459.323273 
	C612.786499,460.994873 614.005798,462.978119 612.414001,464.854584 
	C610.619141,466.970367 608.379822,465.871094 606.477112,464.947388 
	C598.976501,461.306183 593.145935,455.776489 588.781067,448.705048 
	C587.805786,447.125031 587.091003,445.291901 588.230164,443.552002 
	C589.584473,441.483612 591.602173,441.867462 593.930786,442.750000 
z"/>
<path fill="#000000" opacity="1.000000" stroke="none" 
	d="
M153.253754,310.084442 
	C150.140472,308.846771 147.684982,307.427795 147.727783,303.993652 
	C147.771942,300.449524 150.296860,298.761597 153.088089,297.464508 
	C158.001816,295.181091 163.086990,294.802155 168.046753,297.125214 
	C173.198761,299.538269 173.583710,304.454041 168.865723,307.638428 
	C164.249115,310.754364 159.126907,311.788910 153.253754,310.084442 
z"/>
<path fill="#000000" opacity="1.000000" stroke="none" 
	d="
M211.446594,314.281647 
	C216.538193,311.183563 221.506866,311.181030 226.531845,313.205658 
	C229.440262,314.377502 231.911606,316.313782 231.812088,319.708466 
	C231.714752,323.028534 229.294098,324.983276 226.360718,326.133179 
	C222.016159,327.836365 217.605392,327.888153 213.313293,326.001495 
	C207.431915,323.416321 206.690842,319.298340 211.446594,314.281647 
z"/>
<path fill="#000000" opacity="1.000000" stroke="none" 
	d="
M521.401001,432.518524 
	C521.074280,432.106720 520.963013,431.980469 520.877014,431.838898 
	C519.135864,428.971985 515.452087,425.861359 518.733887,422.690796 
	C521.610046,419.912018 525.047363,423.017670 527.675720,424.775482 
	C533.106445,428.407532 537.738342,432.965118 540.992188,438.721649 
	C541.870361,440.275299 542.862793,442.067413 541.379761,443.825043 
	C539.757996,445.747131 537.749695,445.141510 535.893555,444.283112 
	C530.192200,441.646484 525.704041,437.470062 521.401001,432.518524 
z"/>
<path fill="#000000" opacity="1.000000" stroke="none" 
	d="
M262.171570,327.955475 
	C265.882477,334.241974 263.985229,338.561554 257.092377,340.449188 
	C252.145538,341.803833 246.673828,340.093933 244.096924,336.442993 
	C242.442093,334.098450 242.494934,331.703186 244.116425,329.494019 
	C247.224884,325.259033 251.619064,324.292908 256.544739,325.129120 
	C258.537811,325.467499 260.323853,326.370178 262.171570,327.955475 
z"/>
<path fill="#000000" opacity="1.000000" stroke="none" 
	d="
M210.122498,296.878357 
	C215.472122,294.161530 220.377579,294.258911 225.077927,297.390503 
	C229.328552,300.222412 229.348328,304.489044 225.214844,307.519806 
	C220.946777,310.649261 214.325989,310.853699 209.700943,307.998962 
	C204.719360,304.924103 204.742798,301.329834 210.122498,296.878357 
z"/>
<path fill="#000000" opacity="1.000000" stroke="none" 
	d="
M369.128143,241.726166 
	C367.875854,245.906952 364.914795,244.311371 362.617828,243.662582 
	C360.684662,243.116531 358.161987,242.115417 359.644745,239.110092 
	C360.290619,237.800995 359.653259,237.322235 358.747681,236.773788 
	C356.327454,235.307999 355.150604,233.593399 358.316376,231.244217 
	C355.389008,229.523575 352.917480,227.981125 354.662201,224.538025 
	C350.957489,223.065338 351.572693,219.272919 350.272980,216.490036 
	C348.900116,213.550507 350.520447,212.907349 352.842987,212.702591 
	C357.050201,212.331696 358.463287,214.763306 360.032349,218.799210 
	C361.125519,221.611084 360.171997,225.069916 363.332764,227.660278 
	C365.219269,229.206375 366.857056,234.057159 366.391052,235.799362 
	C365.457001,239.291641 368.061584,239.665329 369.128143,241.726166 
z"/>
<path fill="#000000" opacity="1.000000" stroke="none" 
	d="
M465.745789,268.988098 
	C467.136414,270.230072 468.382111,271.147369 469.197174,272.355286 
	C470.626190,274.473175 470.526581,275.966980 467.746552,277.427338 
	C464.937531,278.902893 461.791718,280.299164 459.997192,283.283722 
	C459.215729,284.583282 458.019989,284.958527 456.571869,284.714996 
	C455.619659,284.554871 454.541290,284.012177 453.802521,285.023987 
	C450.241516,289.901367 447.580597,286.402771 444.956268,284.001068 
	C443.733124,282.881622 442.836121,281.285675 443.605835,279.501495 
	C444.354462,277.766174 446.209564,278.574707 447.403748,278.071838 
	C451.823639,276.210480 457.003967,274.681824 459.450806,270.494873 
	C461.398224,267.162537 462.993683,267.831726 465.745789,268.988098 
z"/>
<path fill="#000000" opacity="1.000000" stroke="none" 
	d="
M184.063293,308.491211 
	C180.962830,306.980255 177.925766,305.520264 178.380722,301.940186 
	C178.872787,298.068085 182.262909,296.668549 185.583755,296.012115 
	C189.700012,295.198456 193.879257,295.248962 197.701584,297.445526 
	C202.259415,300.064758 202.380478,304.480316 197.931763,307.201874 
	C193.688309,309.797913 189.118408,309.808929 184.063293,308.491211 
z"/>
<path fill="#000000" opacity="1.000000" stroke="none" 
	d="
M159.569275,276.250793 
	C164.217728,275.262299 168.481476,275.005829 172.628799,276.723053 
	C174.530777,277.510620 176.126221,278.628876 176.379425,280.935181 
	C176.657684,283.469604 175.192902,285.057739 173.268936,286.156128 
	C168.416672,288.926208 163.178482,289.314117 157.888443,287.825348 
	C155.506454,287.154999 153.103317,285.935211 152.806763,282.993134 
	C152.505875,280.008179 154.664154,278.599548 156.932739,277.400391 
	C157.662292,277.014771 158.445251,276.730164 159.569275,276.250793 
z"/>
<path fill="#000000" opacity="1.000000" stroke="none" 
	d="
M371.580994,230.790771 
	C373.732483,227.705521 376.340942,228.534836 378.808777,229.589920 
	C381.201294,230.612762 382.445923,232.239075 381.208099,235.117249 
	C380.610962,236.505753 382.631042,237.248764 382.916138,238.509735 
	C384.009186,243.343979 383.619965,248.485046 386.186371,253.035675 
	C386.859009,254.228378 385.653137,255.147430 384.494629,255.627762 
	C380.925903,257.107452 375.484650,253.290710 375.011322,249.528305 
	C374.233490,243.345001 374.211639,236.979996 371.580994,230.790771 
z"/>
<path fill="#000000" opacity="1.000000" stroke="none" 
	d="
M189.703430,290.392090 
	C185.386246,289.655121 181.009216,288.430359 181.250641,283.858978 
	C181.507126,279.001801 186.431915,278.445465 190.320450,277.815491 
	C193.843033,277.244781 197.282516,278.085968 200.323700,279.975616 
	C204.617950,282.643860 204.368240,286.894409 199.802841,289.166016 
	C196.745468,290.687256 193.445251,290.848816 189.703430,290.392090 
z"/>
<path fill="#000000" opacity="1.000000" stroke="none" 
	d="
M623.945312,456.145752 
	C620.527405,453.703461 617.485901,451.382690 615.444153,448.029022 
	C614.747192,446.884186 613.969604,445.676361 614.785767,444.330444 
	C615.573608,443.031311 617.008484,442.715057 618.314026,443.059540 
	C627.047180,445.364044 633.954590,450.467804 638.832275,457.908508 
	C640.703125,460.762512 638.244080,462.262054 635.384644,461.749207 
	C631.217407,461.001831 627.694336,458.696320 623.945312,456.145752 
z"/>
<path fill="#000000" opacity="1.000000" stroke="none" 
	d="
M185.069534,263.723328 
	C185.815231,266.432098 184.999176,268.197113 182.964722,269.554504 
	C179.113510,272.124054 170.219620,272.181580 166.300735,269.590424 
	C162.107132,266.817627 162.308258,262.626801 166.747635,260.278107 
	C172.555145,257.205566 180.157379,258.513275 185.069534,263.723328 
z"/>
<path fill="#000000" opacity="1.000000" stroke="none" 
	d="
M613.185181,408.605072 
	C615.929504,411.196594 618.694031,413.377838 620.592224,416.375397 
	C621.399780,417.650665 622.309021,419.105682 621.111145,420.488403 
	C619.929932,421.851898 618.286133,421.300476 616.963989,420.612640 
	C612.005615,418.032959 607.995911,414.321350 604.693054,409.844177 
	C603.909851,408.782501 603.008362,407.543274 603.947632,406.204437 
	C604.900391,404.846344 606.294006,405.378021 607.597412,405.746063 
	C608.353882,405.959656 609.120117,406.520874 610.405151,405.550842 
	C607.369202,401.470703 601.874573,399.095978 601.086548,393.372498 
	C605.728882,393.151520 614.678772,400.430206 615.498535,404.443909 
	C616.025391,407.023926 612.000793,405.979095 613.185181,408.605072 
z"/>
<path fill="#000000" opacity="1.000000" stroke="none" 
	d="
M574.965698,429.028931 
	C577.660645,431.779724 579.983337,434.367462 581.436462,437.608002 
	C582.063416,439.005920 582.687439,440.458252 581.370911,441.737030 
	C580.299683,442.777496 578.830750,442.697357 577.612000,442.150238 
	C570.236511,438.839203 564.738342,433.506256 561.100403,426.301270 
	C560.490845,425.094086 560.443726,423.671997 561.624084,422.635437 
	C562.752625,421.644409 564.057983,421.792969 565.367004,422.289886 
	C569.021667,423.677307 571.859436,426.237366 574.965698,429.028931 
z"/>
<path fill="#000000" opacity="1.000000" stroke="none" 
	d="
M221.960098,280.991089 
	C222.081848,281.065674 222.218674,281.163879 222.368912,281.232971 
	C225.619293,282.728027 230.290344,283.695068 229.334732,288.279785 
	C228.366211,292.926453 223.691757,293.231598 219.589600,293.378204 
	C216.711563,293.481049 213.948425,293.043701 211.434357,291.565460 
	C209.656296,290.519958 208.055817,289.208710 208.275757,286.900452 
	C208.484299,284.712006 209.960129,283.326019 211.925018,282.537476 
	C214.882431,281.350647 217.946365,280.674225 221.592285,281.006958 
	C222.019180,281.029144 221.981415,281.001160 221.960098,280.991089 
z"/>
<path fill="#000000" opacity="1.000000" stroke="none" 
	d="
M203.142883,275.522156 
	C198.832336,276.766846 195.163147,275.806885 191.694275,274.068573 
	C189.907883,273.173370 188.299927,271.781433 188.378616,269.482391 
	C188.456482,267.207947 190.114761,265.981476 191.919632,265.037811 
	C195.324020,263.257782 199.009521,263.295349 202.612350,263.988220 
	C205.943771,264.628906 209.463547,265.923645 209.622375,269.908844 
	C209.766891,273.535187 206.485397,274.570435 203.142883,275.522156 
z"/>
<path fill="#000000" opacity="1.000000" stroke="none" 
	d="
M527.993042,330.727112 
	C535.049133,329.792267 541.248840,333.441803 548.020020,333.068634 
	C548.979065,333.015778 550.152466,334.536072 551.011841,335.516510 
	C552.410095,337.111908 553.138123,339.027435 551.695984,340.926605 
	C550.352173,342.696381 548.490784,342.399597 546.752319,341.481049 
	C545.018066,340.564758 543.347656,339.527496 541.445923,338.425446 
	C539.195068,342.256531 535.890320,341.905518 532.651245,339.921600 
	C529.440430,337.954926 525.985229,335.835022 527.993042,330.727112 
z"/>
<path fill="#000000" opacity="1.000000" stroke="none" 
	d="
M680.530701,465.161377 
	C678.788086,468.600922 676.374817,467.038330 674.487000,466.092438 
	C668.490295,463.087769 663.420471,458.898621 659.610596,453.291840 
	C658.754883,452.032623 657.718079,450.737335 658.962097,449.286621 
	C660.065063,448.000488 661.689148,447.995819 663.091675,448.694855 
	C670.458191,452.366364 676.966309,457.005737 680.530701,465.161377 
z"/>
<path fill="#000000" opacity="1.000000" stroke="none" 
	d="
M637.640564,435.227783 
	C644.447449,438.284546 649.852051,442.524261 653.903809,448.401581 
	C654.839478,449.758881 656.236450,451.297180 655.006165,452.868408 
	C653.647278,454.603729 651.640808,453.804504 649.975708,453.006165 
	C643.717224,450.005615 638.627625,445.547150 634.608154,439.952423 
	C632.419678,436.906403 633.132141,434.937653 637.640564,435.227783 
z"/>
<path fill="#000000" opacity="1.000000" stroke="none" 
	d="
M590.864746,433.000732 
	C589.309509,430.944641 586.670471,429.212433 588.591919,426.810425 
	C590.312683,424.659363 592.941040,425.909821 595.038330,426.867493 
	C600.694824,429.450409 605.658875,432.998871 609.465454,437.988861 
	C610.362610,439.164948 611.317261,440.590271 610.200256,442.051270 
	C609.163635,443.406952 607.533203,443.308075 606.069885,442.829529 
	C600.270691,440.932892 595.443237,437.487885 590.864746,433.000732 
z"/>
<path fill="#000000" opacity="1.000000" stroke="none" 
	d="
M346.968048,222.005432 
	C348.874756,223.938034 352.786133,224.867371 349.016663,227.997391 
	C350.057037,230.067261 353.794373,230.318024 352.095215,232.828979 
	C350.323517,235.447113 347.591339,233.852264 345.349609,232.788635 
	C342.951141,231.650620 341.098663,230.239761 343.943787,227.827194 
	C342.606598,225.678619 337.536163,224.747070 342.866943,221.171860 
	C336.886993,220.232864 339.884277,214.650909 336.993164,211.849854 
	C340.262451,208.787415 343.861542,209.918274 345.484100,212.158447 
	C347.266327,214.619080 349.416870,218.133575 346.968048,222.005432 
z"/>
<path fill="#000000" opacity="1.000000" stroke="none" 
	d="
M204.664276,263.109619 
	C202.952942,262.294678 201.492004,261.771515 200.385071,260.831543 
	C197.512070,258.391846 197.883621,255.557861 201.167053,253.610001 
	C204.953400,251.363861 212.963394,252.021271 216.282761,254.850632 
	C219.270218,257.397064 218.903534,260.672638 215.354431,262.346863 
	C212.061340,263.900330 208.545563,263.423706 204.664276,263.109619 
z"/>
<path fill="#000000" opacity="1.000000" stroke="none" 
	d="
M614.638916,431.370300 
	C612.946960,429.515259 611.387939,428.001160 610.118225,426.274353 
	C609.191772,425.014465 607.723633,423.467102 609.243225,421.859192 
	C610.509827,420.518951 612.372437,420.874023 613.947205,421.487976 
	C618.401001,423.224365 621.594299,426.697510 625.025452,429.815491 
	C625.999451,430.700623 626.843567,431.772491 627.570557,432.875244 
	C628.612671,434.456177 630.675659,436.142792 628.888550,438.098053 
	C627.241821,439.899750 625.119202,438.516815 623.371765,437.672668 
	C620.214355,436.147491 617.383850,434.110199 614.638916,431.370300 
z"/>
<path fill="#000000" opacity="1.000000" stroke="none" 
	d="
M188.711212,257.276825 
	C184.741196,257.491089 181.284821,257.199982 178.336151,254.998215 
	C174.822006,252.374176 175.150101,249.290756 179.076340,247.351883 
	C182.381378,245.719772 185.819931,245.871536 189.252335,246.785248 
	C192.363403,247.613449 195.925095,248.748352 195.782700,252.493469 
	C195.649658,255.992889 192.224960,256.832520 188.711212,257.276825 
z"/>
<path fill="#000000" opacity="1.000000" stroke="none" 
	d="
M475.974884,282.968872 
	C476.587372,284.586487 478.404114,286.752716 476.154510,287.756897 
	C473.012634,289.159332 471.665833,295.869812 465.947083,290.416412 
	C466.047180,293.948578 465.952271,296.952972 462.095703,295.885193 
	C458.796448,294.971680 455.093689,293.112152 455.374298,289.498749 
	C455.696136,285.354126 459.532928,288.052124 461.847809,287.797607 
	C463.131989,283.305603 469.971100,280.749939 475.696289,282.866730 
	C476.000427,282.998077 475.974884,282.968872 475.974884,282.968872 
z"/>
<path fill="#000000" opacity="1.000000" stroke="none" 
	d="
M565.257935,416.546478 
	C563.915710,414.336700 561.407166,412.327393 563.501343,410.144623 
	C565.643066,407.912231 568.172974,409.835480 570.267395,411.080444 
	C574.728760,413.732361 578.732849,416.938171 581.481201,421.453064 
	C582.240173,422.700012 583.314514,424.083099 581.999939,425.509949 
	C580.817810,426.792908 579.206055,426.434662 577.806763,425.890472 
	C572.900330,423.982300 568.984680,420.687531 565.257935,416.546478 
z"/>
<path fill="#000000" opacity="1.000000" stroke="none" 
	d="
M199.397568,246.254517 
	C195.368042,245.111450 191.015213,244.543152 191.706131,239.271042 
	C192.077194,236.439560 197.465225,235.015442 202.158386,236.131577 
	C202.318619,236.169678 202.475220,236.224182 202.631912,236.275894 
	C205.915314,237.359100 210.180664,238.196701 209.460541,242.613159 
	C208.791656,246.715347 204.613129,246.292831 201.310074,246.345627 
	C200.815704,246.353531 200.320587,246.314102 199.397568,246.254517 
z"/>
<path fill="#000000" opacity="1.000000" stroke="none" 
	d="
M593.959717,410.973755 
	C598.127991,414.265045 602.020691,417.329590 603.462097,422.098846 
	C602.541443,423.826233 601.348694,423.980652 600.222839,423.568268 
	C593.771301,421.205231 588.773865,416.996765 585.066956,411.248260 
	C584.527405,410.411469 584.189575,409.367218 584.875488,408.439514 
	C585.668640,407.366730 586.911377,407.151611 588.011963,407.663147 
	C589.958496,408.567963 591.794739,409.709778 593.959717,410.973755 
z"/>
<path fill="#000000" opacity="1.000000" stroke="none" 
	d="
M218.043762,252.226517 
	C214.886932,250.942810 210.505951,250.378479 211.314331,246.536957 
	C212.179459,242.425842 216.651581,242.732224 220.070786,242.962189 
	C222.318893,243.113419 224.555862,243.976990 226.713684,244.754898 
	C228.515060,245.404312 229.917328,246.737885 229.694122,248.826920 
	C229.465057,250.970856 227.620071,251.864380 225.823593,252.098145 
	C223.393875,252.414322 220.900436,252.240753 218.043762,252.226517 
z"/>
<path fill="#000000" opacity="1.000000" stroke="none" 
	d="
M225.001678,236.998779 
	C220.198654,238.462570 215.520096,238.122299 211.098511,235.753128 
	C209.351257,234.816940 207.588989,233.489273 208.112061,231.126740 
	C208.574326,229.038925 210.559647,228.442184 212.334747,228.210205 
	C216.569992,227.656769 220.558990,228.586182 223.995224,231.189713 
	C225.689346,232.473297 226.638962,234.187286 225.145630,236.676483 
	C225.000000,237.000000 225.001678,236.998779 225.001678,236.998779 
z"/>
<path fill="#000000" opacity="1.000000" stroke="none" 
	d="
M576.483643,403.554382 
	C577.945679,405.780426 581.250183,407.624878 578.919678,410.043274 
	C576.878967,412.160980 574.270264,409.745880 572.253540,408.512756 
	C568.702820,406.341614 565.540283,403.627167 563.094788,400.213135 
	C562.171448,398.924103 560.728577,397.380432 562.254089,395.802917 
	C563.626831,394.383362 565.410217,395.221954 566.864502,396.013763 
	C570.376404,397.925842 573.606628,400.235321 576.483643,403.554382 
z"/>
<path fill="#000000" opacity="1.000000" stroke="none" 
	d="
M636.329163,430.817749 
	C632.747864,427.270111 628.348328,424.798584 627.248474,419.886322 
	C628.994385,417.777527 630.602295,418.527710 632.046265,419.293427 
	C636.787415,421.807587 641.108154,424.867310 644.193909,429.385223 
	C645.017456,430.591064 646.320923,431.848816 645.081299,433.369019 
	C643.887756,434.832611 642.286255,434.059540 640.950684,433.464050 
	C639.444214,432.792389 638.049622,431.869965 636.329163,430.817749 
z"/>
<path fill="#000000" opacity="1.000000" stroke="none" 
	d="
M224.999390,237.000854 
	C230.107437,234.886459 235.010574,235.780930 239.805893,238.043182 
	C241.430878,238.809799 242.485580,239.993378 242.114792,241.941925 
	C241.775833,243.723221 240.364807,244.082825 238.843216,244.424530 
	C231.877289,245.988953 225.685974,243.080414 224.925339,237.391876 
	C225.001678,236.998779 225.000000,237.000000 224.999390,237.000854 
z"/>
<path fill="#000000" opacity="1.000000" stroke="none" 
	d="
M241.895935,231.063721 
	C236.845428,232.882828 232.084793,232.100143 227.552628,229.428574 
	C226.194962,228.628235 225.149933,227.534576 225.447998,225.809723 
	C225.713806,224.271698 227.052567,223.830460 228.323914,223.373962 
	C234.169052,221.275116 241.650650,224.914139 242.081085,230.558365 
	C241.984863,230.996872 241.895935,231.063721 241.895935,231.063721 
z"/>
<path fill="#000000" opacity="1.000000" stroke="none" 
	d="
M525.905029,374.034332 
	C528.496948,375.917480 530.473816,377.901886 531.974854,380.320068 
	C532.666382,381.434265 533.543030,382.696838 532.511047,383.954315 
	C531.461548,385.233124 530.070679,384.601807 528.866272,384.053284 
	C524.245178,381.948883 520.577881,378.658356 517.500061,374.682526 
	C516.678894,373.621704 515.930115,372.343964 516.911987,371.070404 
	C517.897949,369.791534 519.350342,370.133789 520.543152,370.754944 
	C522.291504,371.665436 523.932007,372.783142 525.905029,374.034332 
z"/>
<path fill="#000000" opacity="1.000000" stroke="none" 
	d="
M572.408936,388.592712 
	C574.234253,390.835724 577.030151,392.118225 576.508911,395.343140 
	C570.801331,396.596588 561.642273,389.991608 559.295959,382.359924 
	C565.082520,381.655304 568.485535,385.319916 572.408936,388.592712 
z"/>
<path fill="#000000" opacity="1.000000" stroke="none" 
	d="
M584.679077,400.319824 
	C583.892029,399.432709 583.304138,398.834076 582.828918,398.156433 
	C581.981506,396.947815 580.750671,395.624969 582.026123,394.163513 
	C583.275024,392.732544 584.891174,393.618958 586.150818,394.310089 
	C591.322021,397.147522 595.624329,400.879059 598.589783,407.056824 
	C591.779968,408.513123 588.794312,403.579285 584.679077,400.319824 
z"/>
<path fill="#000000" opacity="1.000000" stroke="none" 
	d="
M242.027420,230.961060 
	C245.832977,230.418594 249.569977,230.422363 253.058929,232.125458 
	C255.714386,233.421646 257.212555,235.324738 255.173309,238.695374 
	C254.970291,239.017914 254.996902,238.999878 255.008545,238.988495 
	C251.241516,239.650116 247.535782,239.569946 243.993134,237.883087 
	C241.268143,236.585587 239.738434,234.797760 241.701233,231.377350 
	C241.895935,231.063721 241.984863,230.996872 242.027420,230.961060 
z"/>
<path fill="#000000" opacity="1.000000" stroke="none" 
	d="
M523.955750,369.112488 
	C520.936035,366.442596 517.455078,364.491791 517.401367,360.087036 
	C523.320190,359.257751 531.804443,366.147369 532.241394,372.185120 
	C528.968872,372.876862 526.711731,370.790009 523.955750,369.112488 
z"/>
<path fill="#000000" opacity="1.000000" stroke="none" 
	d="
M540.226562,375.741150 
	C539.074524,374.162140 537.338989,372.823273 538.767273,371.160858 
	C540.177734,369.519226 541.849365,370.886322 543.244263,371.678986 
	C547.809265,374.272919 552.256653,377.008484 554.114380,383.343872 
	C547.628418,383.212097 544.226746,379.265991 540.226562,375.741150 
z"/>
<path fill="#000000" opacity="1.000000" stroke="none" 
	d="
M592.987183,389.981262 
	C593.513855,392.040985 593.238037,393.748688 591.047119,392.749054 
	C585.997864,390.445312 580.956482,387.945984 578.143066,381.319763 
	C585.044312,381.970337 589.062744,385.585541 592.987183,389.981262 
z"/>
<path fill="#000000" opacity="1.000000" stroke="none" 
	d="
M375.202026,261.265564 
	C377.641022,262.561890 381.201172,263.272858 380.262115,266.127258 
	C379.156250,269.488678 375.523651,268.316711 372.936188,267.662445 
	C370.501587,267.046875 366.699982,266.311493 367.321411,263.258667 
	C368.116394,259.353241 372.013397,260.973358 375.202026,261.265564 
z"/>
<path fill="#000000" opacity="1.000000" stroke="none" 
	d="
M541.874390,366.216736 
	C540.135864,364.313995 537.779541,363.240875 537.904907,360.493774 
	C542.444397,359.900574 550.004761,364.604309 552.348328,369.765045 
	C548.052734,370.981720 545.261414,368.159424 541.874390,366.216736 
z"/>
<path fill="#000000" opacity="1.000000" stroke="none" 
	d="
M562.829346,377.221497 
	C560.937256,375.401703 557.882935,374.707336 558.845520,371.371246 
	C564.973877,371.664429 570.655212,375.730835 571.955383,380.844513 
	C568.254272,381.512390 565.817871,379.096588 562.829346,377.221497 
z"/>
<path fill="#000000" opacity="1.000000" stroke="none" 
	d="
M371.223206,253.496552 
	C373.714020,254.654999 377.297577,255.181290 376.033081,258.323669 
	C374.961426,260.986816 371.686371,260.228729 369.350433,259.239380 
	C367.352600,258.393219 364.030487,257.868622 364.835449,254.952850 
	C365.578949,252.259888 368.512665,252.774887 371.223206,253.496552 
z"/>
<path fill="#000000" opacity="1.000000" stroke="none" 
	d="
M362.867828,249.457901 
	C360.720337,246.697418 362.475220,245.974609 364.505066,245.792801 
	C367.791595,245.498444 370.564178,246.536438 372.613068,249.685043 
	C369.199677,253.068436 366.169220,251.338272 362.867828,249.457901 
z"/>
<path fill="#000000" opacity="1.000000" stroke="none" 
	d="
M351.636963,236.118500 
	C353.224609,237.044632 354.693268,237.637360 354.469208,239.980591 
	C350.395844,242.625275 347.470917,240.231781 344.262451,237.607773 
	C346.299744,234.326569 348.768738,234.987930 351.636963,236.118500 
z"/>
<path fill="#000000" opacity="1.000000" stroke="none" 
	d="
M346.956421,243.392792 
	C351.120697,241.043350 353.951233,242.791168 356.567230,245.680771 
	C353.136688,249.256577 349.447083,248.413116 346.956421,243.392792 
z"/>
<path fill="#000000" opacity="1.000000" stroke="none" 
	d="
M358.832947,254.687225 
	C354.913757,255.747208 351.768860,255.288742 349.626404,251.787842 
	C353.963043,248.667374 357.827545,249.829559 358.832947,254.687225 
z"/>
<path fill="#000000" opacity="1.000000" stroke="none" 
	d="
M585.056824,379.135651 
	C581.943665,377.306366 579.725647,375.129395 578.277771,372.166992 
	C583.385437,373.142426 587.409607,375.534485 590.665833,380.094727 
	C588.152344,380.839508 586.702515,380.359894 585.056824,379.135651 
z"/>
<path fill="#000000" opacity="1.000000" stroke="none" 
	d="
M332.323608,229.881256 
	C330.702240,229.046387 328.977722,228.403412 330.055054,226.506577 
	C330.836334,225.131012 332.371460,225.518692 333.649780,225.941559 
	C335.473358,226.544815 337.572845,226.803955 338.289398,229.250046 
	C336.669861,231.576721 334.662598,230.812469 332.323608,229.881256 
z"/>
<path fill="#000000" opacity="1.000000" stroke="none" 
	d="
M335.993347,232.775208 
	C337.486725,233.455704 338.895508,233.720398 339.324951,235.659943 
	C335.752960,237.858887 333.000977,236.957214 330.373932,234.007156 
	C332.090485,231.556229 333.917633,232.363144 335.993347,232.775208 
z"/>
<path fill="#000000" opacity="1.000000" stroke="none" 
	d="
M332.544983,240.055054 
	C336.318115,238.300629 339.027252,239.476013 341.760254,242.670349 
	C337.529083,244.443314 334.635010,243.637115 332.544983,240.055054 
z"/>
<path fill="#000000" opacity="1.000000" stroke="none" 
	d="
M564.954712,363.956116 
	C566.439087,365.486328 568.076172,366.477844 568.757263,369.417358 
	C564.520874,367.602722 561.129272,365.954407 558.746826,362.066864 
	C561.539734,360.818848 562.927673,362.889313 564.954712,363.956116 
z"/>
<path fill="#000000" opacity="1.000000" stroke="none" 
	d="
M467.160034,296.375366 
	C470.593750,295.550964 472.351501,296.872955 472.911438,300.414093 
	C469.567780,300.862671 467.141663,300.561035 467.160034,296.375366 
z"/>
<path fill="#000000" opacity="1.000000" stroke="none" 
	d="
M476.014282,283.011627 
	C475.865997,281.622650 475.157745,279.769684 477.419617,279.636597 
	C479.692749,279.502899 481.442963,280.635223 482.113190,283.135590 
	C480.273224,285.669922 478.439026,283.943390 476.300690,283.078156 
	C475.974884,282.968872 476.000427,282.998077 476.014282,283.011627 
z"/>
</svg>